<svg xmlns="http://www.w3.org/2000/svg" viewBox="0 0 512 512">
  <defs>
    <linearGradient id="bg" x1="0" y1="0" x2="1" y2="1">
      <stop stop-color="#35205c"/>
      <stop offset="1" stop-color="#10091d"/>
    </linearGradient>
  </defs>
  <rect width="512" height="512" rx="108" fill="url(#bg)"/>
  <circle cx="256" cy="220" r="132" fill="#7d35b2"/>
  <path d="M145 163 116 65l102 78M294 143 396 65l-29 105" fill="#43156d"/>
  <ellipse cx="211" cy="211" rx="29" ry="39" fill="#fff"/>
  <ellipse cx="301" cy="211" rx="29" ry="39" fill="#fff"/>
  <rect x="202" y="210" width="17" height="25" rx="8" fill="#ff3b70"/>
  <rect x="292" y="210" width="17" height="25" rx="8" fill="#ff3b70"/>
  <path d="M198 288q58 62 116 0" fill="none" stroke="#2b0a40" stroke-width="22" stroke-linecap="round"/>
  <path d="m256 350 25 50 55 8-40 39 10 55-50-26-50 26 10-55-40-39 55-8z" fill="#ffe66d"/>
</svg>
